<svg width="16" height="16" viewBox="0 0 16 16" fill="none" xmlns="http://www.w3.org/2000/svg">
<path d="M5.60806 9H4.36264C4.15714 9 3.98901 8.83125 3.98901 8.625V7.375C3.98901 7.16875 4.15714 7 4.36264 7H5.60806C5.81355 7 5.98169 7.16875 5.98169 7.375V8.625C5.98169 8.83125 5.81355 9 5.60806 9ZM8.9707 8.625V7.375C8.9707 7.16875 8.80256 7 8.59707 7H7.35165C7.14615 7 6.97802 7.16875 6.97802 7.375V8.625C6.97802 8.83125 7.14615 9 7.35165 9H8.59707C8.80256 9 8.9707 8.83125 8.9707 8.625ZM11.9597 8.625V7.375C11.9597 7.16875 11.7916 7 11.5861 7H10.3407C10.1352 7 9.96703 7.16875 9.96703 7.375V8.625C9.96703 8.83125 10.1352 9 10.3407 9H11.5861C11.7916 9 11.9597 8.83125 11.9597 8.625ZM8.9707 11.625V10.375C8.9707 10.1687 8.80256 10 8.59707 10H7.35165C7.14615 10 6.97802 10.1687 6.97802 10.375V11.625C6.97802 11.8313 7.14615 12 7.35165 12H8.59707C8.80256 12 8.9707 11.8313 8.9707 11.625ZM5.98169 11.625V10.375C5.98169 10.1687 5.81355 10 5.60806 10H4.36264C4.15714 10 3.98901 10.1687 3.98901 10.375V11.625C3.98901 11.8313 4.15714 12 4.36264 12H5.60806C5.81355 12 5.98169 11.8313 5.98169 11.625ZM11.9597 11.625V10.375C11.9597 10.1687 11.7916 10 11.5861 10H10.3407C10.1352 10 9.96703 10.1687 9.96703 10.375V11.625C9.96703 11.8313 10.1352 12 10.3407 12H11.5861C11.7916 12 11.9597 11.8313 11.9597 11.625ZM14.9487 3.5V14.5C14.9487 15.3281 14.2793 16 13.4542 16H2.49451C1.66941 16 1 15.3281 1 14.5V3.5C1 2.67188 1.66941 2 2.49451 2H3.98901V0.375C3.98901 0.16875 4.15714 0 4.36264 0H5.60806C5.81355 0 5.98169 0.16875 5.98169 0.375V2H9.96703V0.375C9.96703 0.16875 10.1352 0 10.3407 0H11.5861C11.7916 0 11.9597 0.16875 11.9597 0.375V2H13.4542C14.2793 2 14.9487 2.67188 14.9487 3.5ZM13.4542 14.3125V5H2.49451V14.3125C2.49451 14.4156 2.57857 14.5 2.68132 14.5H13.2674C13.3701 14.5 13.4542 14.4156 13.4542 14.3125Z" fill="black"/>
</svg>
