<svg width="16" height="16" viewBox="0 0 16 16" fill="none" xmlns="http://www.w3.org/2000/svg">
<path d="M13.2789 5.75L13.9834 5.04375C14.1299 4.89687 14.1299 4.65937 13.9834 4.5125L13.4535 3.98125C13.307 3.83438 13.07 3.83438 12.9235 3.98125L12.2783 4.62813C11.3088 3.76875 10.0837 3.19375 8.73082 3.04063V1.5H9.60365C9.80939 1.5 9.97772 1.33125 9.97772 1.125V0.375C9.97772 0.16875 9.80939 0 9.60365 0H6.3617C6.15596 0 5.98763 0.16875 5.98763 0.375V1.125C5.98763 1.33125 6.15596 1.5 6.3617 1.5H7.23454V3.04375C4.00506 3.41563 1.49878 6.1625 1.49878 9.5C1.49878 13.0906 4.40095 16 7.98268 16C11.5644 16 14.4666 13.0906 14.4666 9.5C14.4666 8.10312 14.027 6.80937 13.2789 5.75ZM7.98268 14.5C5.22702 14.5 2.99506 12.2625 2.99506 9.5C2.99506 6.7375 5.22702 4.5 7.98268 4.5C10.7383 4.5 12.9703 6.7375 12.9703 9.5C12.9703 12.2625 10.7383 14.5 7.98268 14.5ZM8.35675 11H7.60861C7.40287 11 7.23454 10.8313 7.23454 10.625V6.375C7.23454 6.16875 7.40287 6 7.60861 6H8.35675C8.56249 6 8.73082 6.16875 8.73082 6.375V10.625C8.73082 10.8313 8.56249 11 8.35675 11Z" fill="black"/>
</svg>
